<svg xmlns="http://www.w3.org/2000/svg" xmlns:xlink="http://www.w3.org/1999/xlink" width="50" zoomAndPan="magnify" viewBox="0 0 37.5 37.499999" height="50" preserveAspectRatio="xMidYMid meet" version="1.0"><defs><g/><clipPath id="412e74c3b0"><path d="M 0 2 L 37.007812 2 L 37.007812 33 L 0 33 Z M 0 2 " clip-rule="nonzero"/></clipPath></defs><g fill="#9f3f73" fill-opacity="1"><g transform="translate(3.041009, 27.888634)"><g><path d="M 13.070312 -9.738281 C 14.542969 -10.550781 15.304688 -11.898438 15.304688 -13.78125 C 15.304688 -15.410156 14.773438 -16.679688 13.703125 -17.644531 C 12.636719 -18.585938 11.265625 -19.070312 9.636719 -19.070312 L 1.933594 -19.070312 L 1.933594 0 L 10.601562 0 C 12.230469 0 13.550781 -0.457031 14.621094 -1.371094 C 15.6875 -2.289062 16.222656 -3.558594 16.222656 -5.1875 C 16.222656 -7.449219 15.152344 -8.976562 13.070312 -9.738281 Z M 11.367188 -13.375 C 11.367188 -12.765625 11.136719 -12.253906 10.703125 -11.824219 C 10.273438 -11.390625 9.761719 -11.1875 9.152344 -11.1875 L 5.875 -11.1875 L 5.875 -15.535156 L 9.152344 -15.535156 C 9.761719 -15.535156 10.273438 -15.304688 10.703125 -14.898438 C 11.136719 -14.492188 11.367188 -13.984375 11.367188 -13.375 Z M 10.019531 -3.535156 L 5.875 -3.535156 L 5.875 -7.882812 L 10.019531 -7.882812 C 10.628906 -7.882812 11.160156 -7.652344 11.59375 -7.222656 C 12.027344 -6.789062 12.253906 -6.28125 12.253906 -5.695312 C 12.253906 -5.085938 12.027344 -4.578125 11.59375 -4.167969 C 11.160156 -3.738281 10.628906 -3.535156 10.019531 -3.535156 Z M 10.019531 -3.535156 "/></g></g></g><g fill="#9f3f73" fill-opacity="1"><g transform="translate(20.227729, 27.888634)"><g><path d="M 9.890625 -19.070312 L 1.933594 -19.070312 L 1.933594 0 L 5.898438 0 L 5.898438 -7.804688 L 9.890625 -7.804688 C 11.46875 -7.804688 12.816406 -8.339844 13.90625 -9.40625 C 15 -10.476562 15.5625 -11.796875 15.5625 -13.375 C 15.5625 -14.949219 15 -16.273438 13.90625 -17.390625 C 12.789062 -18.511719 11.46875 -19.070312 9.890625 -19.070312 Z M 9.28125 -11.109375 L 5.898438 -11.109375 L 5.898438 -15.5625 L 9.28125 -15.5625 C 9.992188 -15.5625 10.578125 -15.332031 11.035156 -14.925781 C 11.492188 -14.519531 11.746094 -13.984375 11.746094 -13.324219 C 11.746094 -12.664062 11.492188 -12.128906 11.035156 -11.722656 C 10.578125 -11.316406 9.992188 -11.109375 9.28125 -11.109375 Z M 9.28125 -11.109375 "/></g></g></g><g clip-path="url(#412e74c3b0)"><path stroke-linecap="butt" transform="matrix(0.132676, 0, 0, 0.132676, -29.837902, 3.814051)" fill="none" stroke-linejoin="miter" d="M 338.832435 100.591357 C 349.990923 94.467437 355.732098 84.309974 355.732098 70.118968 C 355.732098 57.871129 351.698555 48.273062 343.66091 40.971466 C 335.623266 33.905405 325.289151 30.284048 312.982428 30.284048 L 254.922959 30.284048 L 254.922959 173.990067 L 320.284024 173.990067 C 332.531864 173.990067 342.483233 170.545362 350.55032 163.655952 C 358.587964 156.737101 362.621507 147.197918 362.621507 134.891195 C 362.621507 117.844323 354.554421 106.332531 338.832435 100.591357 Z M 326.025199 73.21037 C 326.025199 77.803309 324.288126 81.630759 321.020073 84.869371 C 317.781461 88.137424 313.954011 89.697846 309.361072 89.697846 L 284.629858 89.697846 L 284.629858 56.899545 L 309.361072 56.899545 C 313.954011 56.899545 317.781461 58.636619 321.020073 61.698579 C 324.288126 64.760538 326.025199 68.587988 326.025199 73.21037 Z M 315.867736 147.37457 L 284.629858 147.37457 L 284.629858 114.576269 L 315.867736 114.576269 C 320.460676 114.576269 324.494219 116.313343 327.762272 119.581396 C 330.971442 122.820007 332.708515 126.647457 332.708515 131.063745 C 332.708515 135.686127 330.971442 139.513577 327.762272 142.546095 C 324.494219 145.84359 320.460676 147.37457 315.867736 147.37457 Z M 444.440607 30.284048 L 384.437971 30.284048 L 384.437971 173.990067 L 414.350963 173.990067 L 414.350963 115.19455 L 444.440607 115.19455 C 456.305701 115.19455 466.463164 111.161006 474.736344 103.064478 C 482.980082 95.026833 487.190277 85.046022 487.190277 73.21037 C 487.190277 61.345275 482.980082 51.364464 474.736344 42.914633 C 466.286513 34.494243 456.305701 30.284048 444.440607 30.284048 Z M 439.847667 90.257242 L 414.350963 90.257242 L 414.350963 56.693452 L 439.847667 56.693452 C 445.235539 56.693452 449.622385 58.430525 453.096532 61.521927 C 456.511795 64.554445 458.42552 68.587988 458.42552 73.593115 C 458.42552 78.568799 456.511795 82.572901 453.096532 85.664302 C 449.622385 88.69682 445.235539 90.257242 439.847667 90.257242 Z M 439.847667 90.257242 " stroke="#f8a9ad" stroke-width="7.186751" stroke-opacity="1" stroke-miterlimit="4"/></g></svg>