<svg xmlns="http://www.w3.org/2000/svg" xmlns:xlink="http://www.w3.org/1999/xlink" width="50" zoomAndPan="magnify" viewBox="0 0 37.5 37.499999" height="50" preserveAspectRatio="xMidYMid meet" version="1.0"><defs><g/><clipPath id="3f28815df6"><path d="M 0 1 L 37.007812 1 L 37.007812 36 L 0 36 Z M 0 1 " clip-rule="nonzero"/></clipPath></defs><g fill="#9f3f73" fill-opacity="1"><g transform="translate(-0.00576546, 30.214485)"><g><path d="M 14.644531 -10.914062 C 16.296875 -11.824219 17.152344 -13.335938 17.152344 -15.441406 C 17.152344 -17.265625 16.554688 -18.691406 15.355469 -19.773438 C 14.160156 -20.828125 12.621094 -21.367188 10.796875 -21.367188 L 2.164062 -21.367188 L 2.164062 0 L 11.882812 0 C 13.703125 0 15.1875 -0.511719 16.382812 -1.539062 C 17.578125 -2.5625 18.175781 -3.988281 18.175781 -5.8125 C 18.175781 -8.347656 16.980469 -10.058594 14.644531 -10.914062 Z M 12.734375 -14.988281 C 12.734375 -14.300781 12.480469 -13.734375 11.996094 -13.25 C 11.511719 -12.765625 10.941406 -12.535156 10.257812 -12.535156 L 6.582031 -12.535156 L 6.582031 -17.410156 L 10.257812 -17.410156 C 10.941406 -17.410156 11.511719 -17.152344 11.996094 -16.695312 C 12.480469 -16.238281 12.734375 -15.671875 12.734375 -14.988281 Z M 11.226562 -3.960938 L 6.582031 -3.960938 L 6.582031 -8.832031 L 11.226562 -8.832031 C 11.910156 -8.832031 12.507812 -8.574219 12.992188 -8.089844 C 13.476562 -7.605469 13.734375 -7.039062 13.734375 -6.382812 C 13.734375 -5.699219 13.476562 -5.128906 12.992188 -4.671875 C 12.507812 -4.1875 11.910156 -3.960938 11.226562 -3.960938 Z M 11.226562 -3.960938 "/></g></g></g><g fill="#9f3f73" fill-opacity="1"><g transform="translate(19.25294, 30.214485)"><g><path d="M 11.082031 -21.367188 L 2.164062 -21.367188 L 2.164062 0 L 6.609375 0 L 6.609375 -8.746094 L 11.082031 -8.746094 C 12.851562 -8.746094 14.359375 -9.34375 15.585938 -10.542969 C 16.808594 -11.738281 17.4375 -13.21875 17.4375 -14.988281 C 17.4375 -16.753906 16.808594 -18.234375 15.585938 -19.488281 C 14.332031 -20.742188 12.851562 -21.367188 11.082031 -21.367188 Z M 10.398438 -12.449219 L 6.609375 -12.449219 L 6.609375 -17.4375 L 10.398438 -17.4375 C 11.195312 -17.4375 11.851562 -17.179688 12.367188 -16.722656 C 12.878906 -16.269531 13.164062 -15.671875 13.164062 -14.929688 C 13.164062 -14.1875 12.878906 -13.589844 12.367188 -13.132812 C 11.851562 -12.679688 11.195312 -12.449219 10.398438 -12.449219 Z M 10.398438 -12.449219 "/></g></g></g><g clip-path="url(#3f28815df6)"><path stroke-linecap="butt" transform="matrix(0.148672, 0, 0, 0.148672, -36.84847, 3.237534)" fill="none" stroke-linejoin="miter" d="M 338.839548 100.583256 C 349.979874 94.461331 355.733958 84.31943 355.733958 70.131279 C 355.733958 57.88743 351.713982 48.271016 343.674029 40.99302 C 335.607803 33.925219 325.281981 30.273084 312.985584 30.273084 L 254.919261 30.273084 L 254.919261 173.993801 L 320.26358 173.993801 C 332.533703 173.993801 342.491684 170.525587 350.531636 163.66798 C 358.597863 156.731551 362.617839 147.19396 362.617839 134.897562 C 362.617839 117.845506 354.577886 106.337339 338.839548 100.583256 Z M 326.017663 73.231653 C 326.017663 77.80339 324.283556 81.639446 321.025536 84.871192 C 317.79379 88.155486 313.957735 89.679399 309.359723 89.679399 L 284.609281 89.679399 L 284.609281 56.889004 L 309.359723 56.889004 C 313.957735 56.889004 317.79379 58.623112 321.025536 61.723486 C 324.283556 64.745036 326.017663 68.581092 326.017663 73.231653 Z M 315.875763 147.377881 L 284.609281 147.377881 L 284.609281 114.587486 L 315.875763 114.587486 C 320.4475 114.587486 324.493751 116.321594 327.751771 119.579614 C 330.983516 122.811359 332.717624 126.647415 332.717624 131.061507 C 332.717624 135.685793 330.983516 139.521849 327.751771 142.569674 C 324.493751 145.827694 320.4475 147.377881 315.875763 147.377881 Z M 444.436178 30.273084 L 384.451827 30.273084 L 384.451827 173.993801 L 414.352042 173.993801 L 414.352042 115.191797 L 444.436178 115.191797 C 456.312186 115.191797 466.454087 111.17182 474.756783 103.079319 C 482.980656 95.013093 487.184552 85.055112 487.184552 73.231653 C 487.184552 61.32937 482.980656 51.37139 474.756783 42.911048 C 466.270166 34.47698 456.312186 30.273084 444.436178 30.273084 Z M 439.838166 90.257434 L 414.352042 90.257434 L 414.352042 56.705084 L 439.838166 56.705084 C 445.224409 56.705084 449.612226 58.439191 453.080441 61.513291 C 456.496107 64.561116 458.414135 68.581092 458.414135 73.599494 C 458.414135 78.565347 456.496107 82.585323 453.080441 85.659422 C 449.612226 88.707248 445.224409 90.257434 439.838166 90.257434 Z M 439.838166 90.257434 " stroke="#f8a9ad" stroke-width="7.186751" stroke-opacity="1" stroke-miterlimit="4"/></g></svg>